<svg width="53" height="36" viewBox="0 0 53 36" fill="none" xmlns="http://www.w3.org/2000/svg">
<path d="M39.8473 31.2973C40.0385 32.6738 39.5175 33.9886 38.574 34.8126C38.3988 34.9673 38.2091 35.1031 38.0067 35.2198C37.8234 35.3241 37.6322 35.4139 37.4299 35.485C36.9709 35.6476 36.4928 35.7076 36.0226 35.6777C36.0099 35.6777 35.9971 35.6777 35.9844 35.6745C35.0378 35.6066 34.1262 35.1772 33.4809 34.4906C32.4339 33.3777 32.4642 31.9949 32.4768 31.7061C32.4768 31.5671 32.4833 31.4315 32.4991 31.2973H21.1207C21.1367 31.4315 21.1431 31.5671 21.1431 31.7061C21.1559 31.9949 21.1861 33.3777 20.1391 34.4906C19.4937 35.1772 18.5822 35.6066 17.6356 35.6745C17.6228 35.6777 17.61 35.6777 17.5972 35.6777C17.1272 35.7076 16.6491 35.6476 16.1902 35.485C15.9877 35.4139 15.7965 35.3241 15.6132 35.2198C15.4108 35.1031 15.2212 34.9673 15.0459 34.8142C15.0443 34.8142 15.0443 34.8126 15.0443 34.8126C14.1025 33.987 13.5814 32.6738 13.7726 31.2973H9.67383C9.70091 31.1962 9.7296 31.0937 9.75669 30.9926C10.2666 29.1158 10.7766 27.2374 11.2866 25.3604L11.6212 25.3447L15.5367 25.1711C15.7136 25.1632 15.8491 25.0163 15.8411 24.8428C15.8331 24.6674 15.6881 24.5318 15.508 24.5413L11.7949 24.7053L11.4619 24.7211C11.6467 24.0361 11.8332 23.3526 12.018 22.6691L12.3415 22.696L15.4857 22.9563H15.5128C15.677 22.9563 15.8172 22.8318 15.83 22.6675C15.8443 22.4939 15.7152 22.3408 15.5399 22.3265L12.5104 22.0756L12.1869 22.0488C12.375 21.3558 12.563 20.6628 12.7511 19.9714L13.0507 20.0866L16.0339 21.2278C16.0706 21.2422 16.1104 21.25 16.1487 21.25C16.2761 21.25 16.3972 21.1727 16.4451 21.048C16.5088 20.8854 16.4275 20.7023 16.2633 20.6392L13.218 19.4725L12.9184 19.3589C14.571 13.2753 16.2251 7.19177 17.8778 1.10974C19.0714 4.74664 20.2633 8.38353 21.4554 12.0189C22.2969 11.5958 24.2586 10.7292 26.7988 10.7687H26.8211C29.3613 10.7292 31.3231 11.5958 32.1645 12.0189C33.3565 8.38353 34.5486 4.74664 35.7422 1.10974C37.3947 7.19177 39.049 13.2753 40.7015 19.3589L40.4019 19.4725L37.3565 20.6392C37.1923 20.7023 37.1095 20.8854 37.1732 21.048C37.2226 21.1727 37.3437 21.25 37.4713 21.25C37.5095 21.25 37.5477 21.2422 37.5859 21.2278L40.5692 20.0866L40.8689 19.9714C41.0568 20.6628 41.2449 21.3558 41.4329 22.0488L41.1094 22.0756L38.08 22.3265C37.9047 22.3408 37.774 22.4939 37.7883 22.6675C37.8027 22.8318 37.9429 22.9563 38.1054 22.9563H38.1326L41.2785 22.696L41.6019 22.6691C41.7868 23.3526 41.9731 24.0361 42.158 24.7211L41.825 24.7053L38.1103 24.5413C37.9303 24.5348 37.7852 24.6674 37.7773 24.8428C37.7692 25.0163 37.9063 25.1632 38.0816 25.1711L41.9987 25.3447L42.3334 25.3604C42.8433 27.2374 43.3533 29.1158 43.8633 30.9926C43.8903 31.0937 43.919 31.1962 43.946 31.2973H39.8473Z" fill="#F4E041"/>
<path d="M44.3604 31.613L44.2776 31.3098L44.1914 30.9926L42.6647 25.3746L42.3333 25.3604L41.9987 25.3447L43.5301 30.9815H39.4807L39.5301 31.3399C39.6815 32.4242 39.3564 33.4756 38.7046 34.2332C38.5803 34.3785 38.4433 34.5127 38.2966 34.6326C38.2521 34.6705 38.2058 34.7068 38.1596 34.7399C38.064 34.8126 37.9652 34.8773 37.8616 34.9357C37.6911 35.0352 37.5111 35.1203 37.3213 35.1867C37.0058 35.2987 36.6775 35.3587 36.3477 35.3682C36.2392 35.3714 36.1309 35.3682 36.0226 35.3619C35.9174 35.3556 35.8121 35.3429 35.7071 35.3256C34.9612 35.2071 34.2489 34.8441 33.7135 34.2744C32.8242 33.3287 32.7748 32.1734 32.7955 31.706C32.7955 31.5688 32.8018 31.4471 32.8146 31.3335L32.8561 30.9815H20.7621L20.8035 31.3335C20.8163 31.4471 20.8243 31.5688 20.8243 31.7187C20.8434 32.1734 20.794 33.3287 19.9047 34.2744C19.3693 34.8441 18.6569 35.2071 17.9127 35.3256C17.8076 35.3429 17.7024 35.3556 17.5972 35.3619C17.4889 35.3682 17.3806 35.3714 17.2721 35.3682C16.9407 35.3587 16.6124 35.2987 16.2968 35.1867C16.1088 35.1203 15.9287 35.0368 15.7598 34.9373H15.7582C15.6546 34.8788 15.5542 34.8126 15.4586 34.7399C15.4124 34.7068 15.3661 34.6705 15.3215 34.6326C15.1749 34.5127 15.0379 34.3785 14.9136 34.2332C14.2618 33.4756 13.9367 32.4242 14.0881 31.3399L14.1375 30.9815H10.0897L11.6211 25.3447L11.2865 25.3604L10.9534 25.3746L9.42674 30.9926L9.34069 31.3098L9.25781 31.613H13.4203C13.3152 33.4677 14.3924 35.1851 16.0817 35.7818C17.5526 36.3027 19.2768 35.8702 20.3718 34.7052C21.4251 33.5844 21.484 32.2238 21.4618 31.706C21.4618 31.6745 21.4602 31.6428 21.4602 31.613H32.1581V31.6919C32.1342 32.2238 32.1931 33.5844 33.2466 34.7052C34.0337 35.5419 35.1429 35.9996 36.2504 35.9996C36.6856 35.9996 37.1206 35.9286 37.5365 35.7818C39.2257 35.1851 40.303 33.4677 40.1979 31.613H44.3604ZM12.018 22.669L11.6945 22.6421L11.1271 24.7353L11.4618 24.7211L11.7949 24.7054L12.3415 22.6958L12.018 22.669ZM35.7709 0L35.4377 1.01183C34.4433 4.04573 33.4473 7.07964 32.453 10.112L31.9733 11.5753C30.7605 11.0101 28.9628 10.415 26.8211 10.4529H26.8036C24.6554 10.4182 22.8577 11.0101 21.6451 11.5753L21.1654 10.112C20.1708 7.07964 19.1765 4.04573 18.1805 1.01183L17.8475 0L12.6188 19.2437L12.9184 19.3589L13.2179 19.4726L17.9064 2.21782C18.7908 4.91549 19.6753 7.6116 20.5581 10.3077L21.2674 12.4671L21.5988 12.2998C22.7398 11.7252 24.5741 11.0433 26.7987 11.0843H26.8258C29.0569 11.0464 30.8784 11.7252 32.0194 12.2998L32.3524 12.4671L33.0601 10.3077C33.9429 7.6116 34.8273 4.91549 35.7134 2.21782L40.4018 19.4726L40.7014 19.3589L40.9995 19.2437L35.7709 0ZM12.4514 19.8562L11.8634 22.0218L12.1869 22.0486L12.5104 22.0755L13.0506 20.0867L12.751 19.9714L12.4514 19.8562ZM41.1667 19.8576L40.8688 19.9714L40.5692 20.0867L41.1094 22.0755L41.4329 22.0486L41.7549 22.0234L41.1667 19.8576ZM41.9237 22.6421L41.6019 22.669L41.2783 22.6958L41.825 24.7054L42.158 24.7211L42.491 24.7353L41.9237 22.6421Z" fill="black"/>
<path d="M29.3354 20.6989C28.9609 20.6989 28.6582 20.3989 28.6582 20.028V15.9618C28.6582 15.5908 28.9609 15.2909 29.3354 15.2909C29.7099 15.2909 30.0126 15.5908 30.0126 15.9618V20.028C30.0126 20.3975 29.7099 20.6989 29.3354 20.6989Z" fill="black"/>
<path d="M24.6818 19.9888C24.3104 20.0282 23.9757 19.7614 23.9359 19.3921L23.606 16.3234C23.5661 15.9556 23.8355 15.6242 24.2084 15.5847C24.5798 15.5452 24.9144 15.812 24.9542 16.1814L25.284 19.25C25.324 19.6193 25.0546 19.9493 24.6818 19.9888Z" fill="black"/>
<path d="M16.4424 21.048C16.3946 21.1727 16.2735 21.25 16.146 21.25C16.1077 21.25 16.0679 21.2422 16.0312 21.228L13.048 20.0866L12.7484 19.9714L12.4488 19.8562L8.11415 18.1971C7.94842 18.134 7.86714 17.9509 7.93088 17.7883C7.99464 17.6258 8.17949 17.5453 8.34364 17.6084L12.6161 19.2437L12.9157 19.3589L13.2153 19.4725L16.2607 20.6392C16.4249 20.7023 16.5061 20.8854 16.4424 21.048Z" fill="black"/>
<path d="M15.8269 22.6674C15.8141 22.8317 15.6739 22.9564 15.5098 22.9564H15.4827L12.3385 22.6959L12.015 22.669L11.6915 22.6422L7.02378 22.2555C6.84848 22.2412 6.71779 22.0882 6.73374 21.9145C6.74807 21.7409 6.89947 21.6114 7.07795 21.6273L11.8604 22.0218L12.1839 22.0487L12.5074 22.0755L15.5369 22.3266C15.7122 22.3407 15.8412 22.4939 15.8269 22.6674Z" fill="black"/>
<path d="M15.8385 24.843C15.8464 25.0167 15.711 25.1634 15.5341 25.1713L11.6186 25.3449L11.2839 25.3608L10.9509 25.3749L7.05446 25.5487H7.04011C6.87119 25.5487 6.72937 25.4159 6.72299 25.2472C6.71502 25.0718 6.85048 24.9251 7.02577 24.9172L11.1246 24.7356L11.4592 24.7215L11.7923 24.7057L15.5054 24.5415C15.6855 24.532 15.8305 24.6678 15.8385 24.843Z" fill="black"/>
<path d="M45.5003 18.1971L41.1641 19.8578L40.866 19.9714L40.5665 20.0866L37.5832 21.228C37.545 21.2422 37.5067 21.25 37.4684 21.25C37.341 21.25 37.2198 21.1727 37.1704 21.048C37.1068 20.8854 37.1895 20.7023 37.3537 20.6392L40.3991 19.4725L40.6988 19.3589L40.9967 19.2437L45.2707 17.6084C45.4333 17.5453 45.6198 17.6258 45.6836 17.7883C45.7457 17.9509 45.6645 18.134 45.5003 18.1971Z" fill="black"/>
<path d="M46.8787 21.9148C46.8929 22.0883 46.7623 22.2415 46.5869 22.2556L41.9193 22.6425L41.5973 22.6693L41.2738 22.6961L38.128 22.9565H38.101C37.9384 22.9565 37.7982 22.8319 37.7838 22.6677C37.7694 22.4941 37.9002 22.341 38.0754 22.3267L41.105 22.0758L41.4284 22.0489L41.7503 22.0237L46.5343 21.6274C46.7097 21.61 46.8643 21.741 46.8787 21.9148Z" fill="black"/>
<path d="M46.89 25.247C46.8819 25.4159 46.7417 25.5485 46.5712 25.5485H46.5568L42.6604 25.3749L42.329 25.3606L41.9944 25.3449L38.0773 25.1713C37.902 25.1633 37.7649 25.0165 37.7728 24.843C37.7809 24.6676 37.9258 24.5351 38.106 24.5415L41.8207 24.7056L42.1537 24.7213L42.4867 24.7356L46.5856 24.9171C46.7624 24.9249 46.8979 25.0718 46.89 25.247Z" fill="black"/>
<path d="M35.8901 32.6486C36.0118 32.9959 36.1173 33.419 36.1509 33.9036C36.1909 34.4735 36.1189 34.9691 36.0197 35.362L35.8901 32.6486Z" fill="white"/>
<path d="M36.0212 35.6777C35.9957 35.6777 35.9702 35.6745 35.9447 35.6682C35.7743 35.6271 35.669 35.4551 35.7121 35.2862C35.8236 34.8362 35.8651 34.3785 35.8332 33.9255C35.806 33.5324 35.7233 33.1378 35.5894 32.7526C35.5319 32.5885 35.6197 32.4085 35.7869 32.3518C35.9543 32.2949 36.1343 32.3817 36.1916 32.5475C36.3446 32.9847 36.4371 33.4345 36.469 33.8829C36.5057 34.4022 36.4578 34.9246 36.3304 35.4392C36.2936 35.5813 36.163 35.6777 36.0212 35.6777Z" fill="black"/>
<path d="M37.9683 32.5237C38.1635 32.8347 38.3333 33.2135 38.3861 33.6475C38.4502 34.1575 38.3349 34.6011 38.1764 34.9546L37.9683 32.5237Z" fill="white"/>
<path d="M38.1758 35.2688C38.1327 35.2688 38.0896 35.2593 38.0466 35.242C37.8856 35.1709 37.8123 34.9847 37.884 34.8252C38.053 34.4465 38.1136 34.0628 38.0673 33.684C38.0258 33.3525 37.9017 33.0179 37.6961 32.6879C37.6036 32.5396 37.6498 32.3453 37.7997 32.2538C37.9494 32.1622 38.1455 32.208 38.2379 32.3564C38.4929 32.7636 38.6474 33.1852 38.7 33.6082C38.7605 34.1008 38.6825 34.5964 38.4673 35.0809C38.4147 35.1994 38.2985 35.2688 38.1758 35.2688Z" fill="black"/>
<path d="M17.7273 32.6486C17.6057 32.9959 17.5 33.419 17.4663 33.9036C17.4263 34.4735 17.4984 34.9691 17.5975 35.362L17.7273 32.6486Z" fill="white"/>
<path d="M17.5945 35.6777C17.4512 35.6777 17.322 35.5813 17.2855 35.4378C17.1579 34.9248 17.1101 34.4007 17.1467 33.8813C17.177 33.4314 17.2711 32.983 17.424 32.5459C17.4815 32.3817 17.6632 32.2933 17.8288 32.3502C17.9946 32.4069 18.0838 32.5869 18.0265 32.7511C17.8926 33.1362 17.8097 33.5293 17.7826 33.9239C17.7508 34.3769 17.7922 34.8348 17.9037 35.2846C17.9452 35.4535 17.8416 35.6255 17.6711 35.6666C17.6455 35.6745 17.6201 35.6777 17.5945 35.6777Z" fill="black"/>
<path d="M15.6491 32.5237C15.4538 32.8347 15.2842 33.2135 15.2314 33.6475C15.1674 34.1575 15.2826 34.6011 15.441 34.9546L15.6491 32.5237Z" fill="white"/>
<path d="M15.4398 35.2688C15.3171 35.2688 15.2008 35.1978 15.1482 35.0809C14.933 34.5978 14.8534 34.1022 14.9155 33.6082C14.9681 33.1852 15.1227 32.7652 15.3777 32.3564C15.4701 32.208 15.6661 32.1622 15.8159 32.2538C15.9657 32.3453 16.0119 32.5396 15.9195 32.6879C15.7139 33.0163 15.5896 33.3525 15.5482 33.684C15.502 34.0628 15.5625 34.4465 15.7314 34.8252C15.8032 34.9847 15.7299 35.1709 15.5689 35.242C15.5259 35.2609 15.4828 35.2688 15.4398 35.2688Z" fill="black"/>
<path d="M11.5688 31.5671H0.339013C0.152556 31.5671 0 31.4461 0 31.2984C0 31.1505 0.152556 31.0297 0.339013 31.0297H11.5688C11.7553 31.0297 11.9078 31.1505 11.9078 31.2984C11.9078 31.4461 11.7553 31.5671 11.5688 31.5671Z" fill="black"/>
<path d="M52.4551 31.6238H41.8974C41.7221 31.6238 41.5786 31.4819 41.5786 31.3082C41.5786 31.1346 41.7221 30.9926 41.8974 30.9926H52.4551C52.6305 30.9926 52.7738 31.1346 52.7738 31.3082C52.7738 31.4819 52.6319 31.6238 52.4551 31.6238Z" fill="black"/>
<path d="M30.0521 25.8153C29.8225 26.4055 29.2918 27.0449 28.6178 27.1413C27.9947 27.2281 27.4209 26.8981 27.0082 26.3851C26.9684 26.4939 26.919 26.6061 26.8553 26.7181C26.7516 26.9013 26.1955 27.8073 25.268 27.8073H25.2424C24.3596 27.7915 23.5932 26.9944 23.4593 25.9511C23.4386 25.7773 23.5613 25.6195 23.7365 25.5989C23.9087 25.5769 24.0713 25.7 24.092 25.8721C24.194 26.6772 24.7629 27.168 25.2536 27.176H25.2664C25.8513 27.176 26.2545 26.4893 26.2991 26.4104C26.519 26.0189 26.5141 25.6179 26.4743 25.3543C26.4601 25.3055 26.4473 25.2565 26.4345 25.2076C25.8211 25.2786 25.292 25.0655 25.1947 24.6771C25.0848 24.2351 25.5772 23.7332 26.2959 23.5564C27.0162 23.3797 27.6887 23.5942 27.7986 24.0363C27.8911 24.401 27.5739 24.805 27.0576 25.0355C27.0735 25.0938 27.0879 25.1634 27.1007 25.2391C27.3588 26.0883 28.0186 26.5855 28.5285 26.5161C28.9238 26.4592 29.295 26.0062 29.456 25.5895C29.5931 25.2359 29.574 24.9029 29.5342 24.6866C29.5039 24.5146 29.6185 24.3504 29.7906 24.3189C29.9659 24.2888 30.1301 24.4024 30.162 24.5729C30.2162 24.8698 30.2416 25.3243 30.0521 25.8153Z" fill="black"/>
</svg>
