<svg width="135" height="24" viewBox="0 0 135 24" fill="none" xmlns="http://www.w3.org/2000/svg">
<path fill-rule="evenodd" clip-rule="evenodd" d="M124.733 3.65966H126.606V8.32759H127.541V3.65966H129.414V2.72607L124.737 2.72853L124.733 3.65966Z" fill="#161616"/>
<path fill-rule="evenodd" clip-rule="evenodd" d="M129.414 8.32759V2.72607H131.052L132.222 7.39401L133.362 2.72607H135V8.32759H134.065V3.65966L132.807 8.32759H131.636L130.35 3.65966V8.32759H129.414Z" fill="#161616"/>
<path fill-rule="evenodd" clip-rule="evenodd" d="M32.7129 7.1543C32.2676 7.28096 31.8515 7.49485 31.4887 7.78368C31.1439 8.06457 30.8699 8.4233 30.6891 8.83068C30.4913 9.28895 30.394 9.78469 30.404 10.2841V10.5626C30.4036 10.6338 30.4111 10.7047 30.4264 10.7742H32.2832V10.5069C32.2832 10.2757 32.3133 10.0454 32.3725 9.82198C32.4304 9.59911 32.5333 9.39059 32.6748 9.20937C32.8258 9.01998 33.0193 8.86919 33.2394 8.76934C33.52 8.64889 33.8235 8.59186 34.1284 8.60227C34.4511 8.59196 34.7731 8.64098 35.0783 8.74692C35.2995 8.82391 35.4966 8.95815 35.6498 9.13609C35.8029 9.31404 35.9066 9.52941 35.9506 9.7605C36.0048 10.0205 36.0311 10.2857 36.0287 10.5513V12.0991C35.2171 12.095 34.4063 12.149 33.6023 12.2607C32.9275 12.3461 32.2729 12.5497 31.668 12.8621C31.1373 13.1425 30.6956 13.567 30.3933 14.0873C30.0875 14.6108 29.9347 15.2846 29.9348 16.1089C29.9275 16.5333 29.9783 16.9568 30.0857 17.3673C30.1712 17.6896 30.3072 17.996 30.4888 18.2752C30.6452 18.5122 30.842 18.7196 31.0702 18.8878C31.2794 19.0417 31.5089 19.1654 31.7522 19.2553C31.9785 19.3385 32.2127 19.3982 32.4511 19.4335C32.6659 19.4657 32.8826 19.4824 33.0997 19.4836C33.6936 19.4933 34.2802 19.3515 34.8049 19.0715C35.3061 18.7987 35.728 18.3995 36.0291 17.9131H36.141C36.2448 18.3341 36.4799 18.7108 36.8118 18.988C37.1608 19.2661 37.5968 19.4102 38.0419 19.3945C38.3019 19.4 38.5614 19.37 38.8134 19.3054C38.9761 19.2639 39.1336 19.2041 39.283 19.1272V17.824H38.5562C38.3891 17.8228 38.229 17.757 38.109 17.6403C37.9746 17.5178 37.9075 17.3153 37.9075 17.0328V10.3064C37.9075 9.24467 37.6055 8.41861 37.0017 7.82824C36.3978 7.23786 35.4884 6.94267 34.2735 6.94267C33.7459 6.9373 33.2203 7.00858 32.7129 7.1543ZM36.0283 14.862C36.0376 15.3067 35.9617 15.7492 35.8048 16.1651C35.6732 16.5087 35.4756 16.8228 35.2233 17.0896C34.9969 17.3262 34.7248 17.5139 34.4237 17.641C34.1424 17.7608 33.8403 17.8232 33.5348 17.8247C33.0054 17.8247 32.6029 17.6911 32.3272 17.4237C32.0515 17.1564 31.9136 16.6812 31.9135 15.9981C31.8952 15.5971 32.0008 15.2002 32.2158 14.862C32.4298 14.5618 32.7219 14.3266 33.0601 14.1821C33.4728 14.0056 33.9104 13.8947 34.3571 13.8536C34.9124 13.7952 35.4704 13.7673 36.0287 13.77V14.8615L36.0283 14.862ZM42.7708 17.8247C43.0196 18.336 43.4048 18.7679 43.8834 19.0722C44.3388 19.3535 44.8639 19.5002 45.3984 19.4955C45.9363 19.504 46.4681 19.3798 46.9471 19.1338C47.4312 18.8681 47.8364 18.478 48.1212 18.0032C48.4813 17.3981 48.7346 16.7348 48.8696 16.0429C49.0586 15.1046 49.1466 14.1487 49.1323 13.1915C49.1472 12.2445 49.0534 11.2989 48.8528 10.3735C48.7069 9.68738 48.448 9.03051 48.0869 8.42999C47.8059 7.96347 47.4115 7.57637 46.9408 7.30503C46.5094 7.06605 46.0245 6.94158 45.5318 6.9434C44.989 6.93414 44.4525 7.06249 43.9721 7.3166C43.5339 7.54416 43.1823 7.91009 42.9713 8.3581H42.8595V2.7207H40.9817V19.217H42.4018L42.6477 17.8247H42.7708ZM47.1652 13.6479C47.1732 14.2891 47.1283 14.9299 47.0309 15.5637C46.9661 16.0132 46.8301 16.4494 46.6279 16.8557C46.4764 17.1603 46.2418 17.4153 45.9514 17.5908C45.6624 17.751 45.3365 17.8317 45.0065 17.8247C44.2834 17.8247 43.7448 17.4757 43.3909 16.7777C43.0369 16.0797 42.8598 15.0365 42.8596 13.6479V12.8793C42.8596 10.0355 43.5752 8.6135 45.0065 8.61341C45.3365 8.60643 45.6624 8.68712 45.9514 8.84731C46.2418 9.02285 46.4764 9.27782 46.6279 9.58243C46.83 9.98872 46.9661 10.4249 47.0309 10.8745C47.128 11.5045 47.1729 12.1416 47.1652 12.7791V13.6479ZM58.5255 7.22113H51.0122V8.89186H55.9432L50.6432 18.3259V19.217H58.8168V17.5574H53.215L58.5261 8.07877V7.22113H58.5255ZM63.1994 16.7443H60.9073V19.217H63.1994V16.7443ZM68.2143 7.15386C67.7689 7.28053 67.3529 7.49442 66.99 7.78325C66.6452 8.06414 66.3713 8.42286 66.1905 8.83024C65.9926 9.28851 65.8954 9.78426 65.9053 10.2837V10.5622C65.9049 10.6333 65.9125 10.7043 65.9278 10.7738H67.7838V10.5065C67.7839 10.2752 67.814 10.045 67.8733 9.82155C67.9313 9.5987 68.0342 9.39018 68.1756 9.20894C68.3267 9.01957 68.5202 8.8688 68.7404 8.76891C69.0209 8.64846 69.3244 8.59142 69.6293 8.60184C69.9521 8.59153 70.274 8.64055 70.5793 8.74649C70.8005 8.82345 70.9976 8.95768 71.1507 9.13563C71.3038 9.31358 71.4075 9.52897 71.4513 9.76007C71.5058 10.0201 71.532 10.2852 71.5296 10.5509V12.0987C70.7181 12.0946 69.9072 12.1486 69.1032 12.2602C68.4285 12.3457 67.7738 12.5493 67.1689 12.8617C66.6382 13.142 66.1966 13.5666 65.8943 14.0869C65.5884 14.6104 65.4356 15.2842 65.4357 16.1084C65.4285 16.5329 65.4793 16.9563 65.5867 17.3669C65.6721 17.6891 65.8082 17.9956 65.9897 18.2747C66.1461 18.5117 66.3429 18.7191 66.571 18.8873C66.7802 19.0412 67.0098 19.165 67.2531 19.2549C67.4795 19.338 67.7137 19.3978 67.9521 19.4331C68.1668 19.4653 68.3835 19.482 68.6006 19.4832C69.1945 19.4928 69.7812 19.351 70.3058 19.0711C70.807 18.7982 71.2289 18.399 71.5301 17.9127H71.6419C71.7458 18.3337 71.9808 18.7104 72.3128 18.9876C72.6617 19.2657 73.0978 19.4098 73.5428 19.3941C73.8028 19.3995 74.0623 19.3696 74.3143 19.305C74.477 19.2635 74.6346 19.2037 74.784 19.1267V17.8236H74.0571C73.8901 17.8224 73.7299 17.7566 73.6099 17.6399C73.4756 17.5174 73.4084 17.3149 73.4084 17.0323V10.3064C73.4084 9.24467 73.1065 8.41861 72.5028 7.82824C71.899 7.23786 70.9896 6.94267 69.7745 6.94267C69.247 6.93733 68.7215 7.0086 68.2143 7.1543V7.15386ZM71.5296 14.8615C71.539 15.3063 71.4631 15.7487 71.3061 16.1647C71.1746 16.5082 70.977 16.8224 70.7246 17.0892C70.4983 17.3258 70.2262 17.5135 69.9251 17.6406C69.6438 17.7604 69.3417 17.8228 69.0362 17.8243C68.5068 17.8243 68.1042 17.6906 67.8286 17.4233C67.5529 17.156 67.415 16.6808 67.4149 15.9976C67.3965 15.5966 67.5021 15.1998 67.7172 14.8615C67.9312 14.5613 68.2233 14.3261 68.5615 14.1817C68.9742 14.0051 69.4118 13.8943 69.8584 13.8531C70.4137 13.7948 70.9718 13.7669 71.5301 13.7695V14.8611L71.5296 14.8615ZM83.438 5.27107C83.4084 5.46321 83.3654 5.65303 83.3094 5.83912C83.2497 6.03312 83.1652 6.21848 83.0579 6.39053C82.9366 6.58392 82.7899 6.76 82.6218 6.91403C82.4196 7.09735 82.194 7.25277 81.9509 7.3762C81.6881 7.239 81.4104 7.13251 81.1235 7.05883C80.8277 6.98117 80.5233 6.94183 80.2177 6.9418C79.6557 6.9334 79.0969 7.02775 78.5685 7.22026C78.101 7.39244 77.6772 7.66628 77.3272 8.02221C76.9801 8.38419 76.715 8.81735 76.55 9.29197C76.3636 9.83621 76.2728 10.4089 76.2817 10.9844C76.2691 11.6006 76.3952 12.2118 76.6506 12.7722C76.8908 13.2809 77.2426 13.7283 77.6794 14.0808C77.2058 14.2397 76.7804 14.5177 76.4438 14.8884C76.1363 15.2361 75.9706 15.6875 75.9797 16.1525C75.9786 16.5122 76.067 16.8664 76.237 17.1829C76.405 17.5023 76.6562 17.7699 76.9638 17.9569C76.7257 18.0458 76.5058 18.1779 76.3153 18.3468C76.122 18.5169 75.956 18.716 75.8233 18.9371C75.6853 19.1683 75.5799 19.4176 75.5101 19.6779C75.4352 19.9518 75.3976 20.2347 75.3984 20.5187C75.3956 20.8966 75.46 21.2719 75.5884 21.6271C75.7112 21.9661 75.9036 22.2753 76.153 22.5348C76.4169 22.8039 76.7354 23.0129 77.0867 23.1474C77.5012 23.3032 77.9414 23.3788 78.3838 23.3701H81.7942C82.3098 23.3793 82.8223 23.2886 83.3037 23.1028C83.7185 22.9411 84.0954 22.6949 84.4107 22.3795C84.7106 22.0722 84.9412 21.7038 85.0872 21.2991C85.2421 20.8709 85.3198 20.4182 85.3165 19.9625C85.3185 19.5952 85.2522 19.2307 85.1209 18.8878C84.994 18.5557 84.8019 18.2526 84.5561 17.9967C84.3023 17.7351 83.9979 17.5284 83.6617 17.3892C83.2892 17.2364 82.8899 17.1607 82.4877 17.1664H79.0436C78.8997 17.1675 78.757 17.1391 78.6244 17.0829C78.495 17.028 78.3773 16.9486 78.2778 16.849C78.1775 16.7495 78.0961 16.6325 78.0374 16.5038C77.9774 16.3728 77.9468 16.2302 77.9479 16.086C77.9468 15.9446 77.9745 15.8045 78.0293 15.6742C78.0841 15.544 78.1649 15.4263 78.2665 15.3286C78.3674 15.2321 78.4848 15.1547 78.6131 15.1003C78.7495 15.0435 78.896 15.015 79.0436 15.0167H80.3072C80.8482 15.0171 81.3845 14.917 81.8893 14.7216C82.3456 14.5436 82.7592 14.2703 83.1025 13.9197C83.4479 13.5585 83.7129 13.1275 83.8798 12.6554C84.0688 12.1192 84.1614 11.5535 84.1532 10.9847C84.1629 10.4365 84.066 9.8917 83.8681 9.38079C83.6859 8.92539 83.4183 8.50944 83.0798 8.15558C83.3817 8.07907 83.6676 7.94897 83.924 7.77139C84.1728 7.59785 84.3886 7.38092 84.5613 7.13087C84.74 6.87111 84.8742 6.58313 84.9582 6.27886C85.0494 5.95074 85.0946 5.61144 85.0924 5.27078H83.4378L83.438 5.27107ZM81.9955 18.9497C82.2109 18.9444 82.4254 18.9803 82.6274 19.0556C82.7942 19.1205 82.9449 19.2212 83.069 19.3507C83.1886 19.4776 83.2784 19.6298 83.3318 19.7962C83.3885 19.9725 83.4168 20.1567 83.4156 20.342C83.4167 20.5292 83.3806 20.7147 83.3094 20.8877C83.2395 21.0568 83.1367 21.2102 83.0071 21.3389C82.8766 21.4686 82.723 21.5725 82.5543 21.6451C82.3775 21.7204 82.1871 21.7584 81.9951 21.7565H78.6747C78.4662 21.7608 78.259 21.7229 78.0653 21.6451C77.899 21.5771 77.75 21.4725 77.6292 21.3389C77.5127 21.2075 77.4234 21.0541 77.3664 20.8877C77.306 20.7122 77.2757 20.5277 77.277 20.342C77.2758 20.1567 77.3041 19.9725 77.3608 19.7962C77.4136 19.6308 77.5013 19.4788 77.618 19.3507C77.7394 19.2205 77.8885 19.1196 78.0541 19.0556C78.2524 18.9809 78.463 18.9449 78.6747 18.9497H81.9955ZM81.7273 9.13141C82.0776 9.55842 82.2528 10.1766 82.2528 10.9859C82.2528 11.7508 82.0776 12.3541 81.7273 12.7959C81.3769 13.2377 80.8663 13.4585 80.1954 13.4585C79.5245 13.4585 79.0176 13.2469 78.6747 12.8237C78.3319 12.4004 78.1604 11.788 78.1603 10.9866C78.1603 10.2144 78.3318 9.60553 78.6747 9.15991C79.0177 8.71428 79.5246 8.49152 80.1954 8.49161C80.8662 8.49113 81.3768 8.70439 81.7273 9.13141ZM87.6479 8.46861C86.8911 9.48609 86.5128 11.0676 86.5129 13.2132C86.4965 14.1738 86.5941 15.1329 86.8036 16.0702C86.9573 16.7725 87.2523 17.4358 87.6702 18.0194C88.0358 18.5138 88.5284 18.8989 89.0952 19.1333C89.7221 19.3783 90.3907 19.4974 91.0631 19.484C91.6143 19.4911 92.1614 19.389 92.6732 19.1833C93.1465 18.9906 93.5721 18.6959 93.9199 18.3202C94.2792 17.924 94.5533 17.4576 94.7251 16.9502C94.9228 16.3639 95.0193 15.7479 95.0102 15.129H93.1535C93.1583 15.5094 93.1075 15.8884 93.0025 16.2539C92.915 16.5621 92.7708 16.8511 92.5776 17.1061C92.4057 17.3333 92.183 17.5166 91.9276 17.6414C91.6722 17.7662 91.3912 17.8289 91.1072 17.8244C90.2201 17.8244 89.5623 17.4977 89.1337 16.8443C88.7052 16.1908 88.4871 15.1661 88.4796 13.7701H95.0096V12.5783C95.0237 11.7138 94.9393 10.8506 94.758 10.0054C94.6276 9.37884 94.3749 8.78449 94.0145 8.25669C93.7006 7.81532 93.2709 7.47022 92.7733 7.2599C92.2226 7.03858 91.6332 6.93061 91.0401 6.94238C89.5352 6.94257 88.4044 7.45132 87.6479 8.46861ZM92.5341 9.48783C92.8732 10.0781 93.0428 10.9487 93.0429 12.0997H88.5033C88.5375 11.587 88.616 11.0783 88.7381 10.5794C88.8299 10.1907 88.9889 9.82129 89.2077 9.48783C89.3976 9.2046 89.6578 8.97613 89.9625 8.82503C90.3006 8.66876 90.6699 8.59255 91.042 8.60227C91.3485 8.59349 91.6512 8.67198 91.9153 8.82866C92.1793 8.98535 92.3939 9.21386 92.5343 9.48783H92.5341ZM100.434 7.32701C99.8998 7.61781 99.4639 8.06173 99.1817 8.60227H99.0474L98.7903 7.22113H97.3704V19.217H99.2487V11.8992C99.242 11.4285 99.3042 10.9594 99.4332 10.5069C99.5381 10.1363 99.7044 9.78608 99.9252 9.47105C100.112 9.20577 100.354 8.98517 100.635 8.82503C100.895 8.67894 101.187 8.60224 101.484 8.60227C101.719 8.59968 101.952 8.6316 102.178 8.69702C102.383 8.75818 102.568 8.87357 102.714 9.03116C102.878 9.21695 102.996 9.43798 103.061 9.67718C103.151 10.0129 103.193 10.3598 103.184 10.7074V19.217H105.063V10.5737C105.075 10.0021 105.004 9.43183 104.85 8.88131C104.733 8.46745 104.529 8.08373 104.252 7.75634C104 7.47041 103.678 7.25543 103.318 7.1326C102.922 7.00148 102.506 6.93749 102.088 6.94325C101.514 6.93628 100.947 7.06789 100.434 7.32701ZM108.267 8.46861C107.599 9.48609 107.266 11.0676 107.266 13.2132C107.253 14.1511 107.336 15.0878 107.512 16.0089C107.639 16.7015 107.892 17.3644 108.26 17.9637C108.572 18.4588 109.016 18.8562 109.541 19.111C110.118 19.3722 110.747 19.4997 111.38 19.484C111.97 19.5012 112.554 19.3691 113.079 19.0998C113.539 18.8527 113.932 18.4972 114.226 18.064C114.53 17.6067 114.748 17.0969 114.869 16.5603C115.005 15.9706 115.073 15.3669 115.07 14.7614H113.213C113.218 15.2014 113.186 15.641 113.118 16.0757C113.07 16.4107 112.964 16.7348 112.805 17.0336C112.673 17.2797 112.476 17.4841 112.235 17.6239C111.972 17.7645 111.677 17.8336 111.38 17.8244C110.619 17.8244 110.071 17.4754 109.736 16.7774C109.4 16.0794 109.233 15.0399 109.232 13.6587V12.7788C109.232 11.3902 109.404 10.3469 109.747 9.64897C110.09 8.95107 110.634 8.60208 111.379 8.60198C111.67 8.59163 111.959 8.65685 112.218 8.79133C112.448 8.92436 112.634 9.12173 112.754 9.35938C112.903 9.65816 112.999 9.98028 113.039 10.3118C113.1 10.7602 113.128 11.2125 113.123 11.665H115.069C115.078 10.9835 115.008 10.3033 114.862 9.63783C114.748 9.10414 114.525 8.59986 114.208 8.15645C113.912 7.75757 113.517 7.44441 113.062 7.24876C112.528 7.03167 111.955 6.92738 111.379 6.94238C109.971 6.94257 108.934 7.45132 108.266 8.46861H108.267ZM125.023 7.22113H123.11L120.863 16.5223H120.774L118.113 7.22113H116.055L119.744 19.217C119.656 19.6585 119.517 20.0882 119.331 20.4979C119.192 20.8025 119.003 21.0813 118.772 21.3224C118.583 21.5171 118.354 21.6674 118.101 21.7625C117.864 21.8474 117.614 21.8907 117.363 21.8905H116.703V23.1825C116.903 23.2582 117.111 23.3087 117.324 23.3329C117.563 23.3599 117.804 23.3729 118.045 23.3719C118.539 23.3814 119.025 23.2501 119.448 22.9932C119.87 22.7261 120.234 22.3779 120.522 21.9684C120.852 21.4985 121.124 20.9898 121.332 20.4536C121.572 19.8494 121.777 19.2321 121.947 18.6047L125.023 7.22113Z" fill="#161616"/>
<path fill-rule="evenodd" clip-rule="evenodd" d="M10.7199 16.4435L12.0153 14.4662L12.021 14.4749L20.2702 1.8705H3.77189L7.63533 7.77376L6.34843 9.73785L0 0H24.0134L12.0067 18.4173L10.7199 16.4435ZM13.2936 7.55649L11.9982 9.53375L11.9926 9.52521L3.74339 22.1295H20.2415L16.3781 16.2264L17.6651 14.2621L24.0134 24H0L12.0068 5.58271L13.2936 7.55649Z" fill="#161616"/>
</svg>
